<?xml version="1.0" encoding="UTF-8"?>
<svg id="Capa_1" xmlns="http://www.w3.org/2000/svg" viewBox="0 0 598.7 191.88">
  <defs>
    <style>
      .cls-1 {
        fill: #e96f51;
      }

      .cls-2 {
        fill: #f5a261;
      }
    </style>
  </defs>
  <rect class="cls-1" x="217.99" y="135.49" width="59.48" height="32" transform="translate(-19.47 37.82) rotate(-8.4)"/>
  <g>
    <path class="cls-1" d="M18.23,88.08c-1.27-1.67-2.85-3.38-4.73-5.12-1.6-1.5-2.74-2.76-3.45-3.82-.7-1.04-1.05-2.41-1.05-4.09,0-1.2.12-2.14.36-2.84.24-.7.54-1.07.92-1.11.54-.06,1,.35,1.38,1.23.38.89.59,2.41.61,4.56l10.42-.87c-.12-8.28-1.35-14.5-3.65-18.6-2.24-4-5.17-5.54-8.72-4.74-2.04.46-3.83,1.74-5.39,3.8-1.53,2.03-2.72,4.75-3.58,8.17-.85,3.38-1.27,7.36-1.27,11.97-.02,4.6.34,8.36,1.11,11.28.77,2.95,1.7,5.22,2.8,6.81,1.11,1.61,2.54,3.28,4.3,5.03,1.5,1.49,2.63,2.82,3.36,3.97.74,1.17,1.11,2.65,1.11,4.45,0,1.29-.17,2.23-.52,2.8-.34.57-.76.83-1.24.77-1.31-.16-2.03-2.39-2.16-6.69l-8.83-.71c.17,7.69,1.23,13.69,3.24,18.06,2.06,4.49,4.74,7.15,8.12,7.91,2.31.52,4.35-.07,6.11-1.83,1.79-1.79,3.18-4.55,4.15-8.27.98-3.76,1.47-8.14,1.47-13.09s-.49-8.67-1.47-11.81c-.97-3.11-2.1-5.5-3.38-7.2Z"/>
    <polygon class="cls-1" points="24.87 71.1 34.11 70.08 34.11 134.6 46.43 137.34 46.43 68.74 58.15 67.45 58.15 43.47 24.87 50.77 24.87 71.1"/>
    <path class="cls-1" d="M108.32,92.46c2.65-6.19,3.99-13.36,3.99-21.41,0-7.48-1.04-14.07-3.09-19.69-2.02-5.54-5-9.6-8.87-12.18-3.76-2.51-8.14-3.17-13.09-2.09l-25.08,5.5v98.25l16.27,3.62v-37.83h.08s10.95,40.28,10.95,40.28l22.94,5.1-14.94-46.89c4.6-2.37,8.25-6.58,10.85-12.66ZM89.65,82.01c-.92,1.54-2.28,2.33-4.07,2.38l-7.13.2v-17.87l7.13-.74c1.74-.18,3.08.51,4.03,2.08.95,1.58,1.43,3.84,1.43,6.76,0,3.24-.46,5.64-1.39,7.18Z"/>
    <polygon class="cls-1" points="119.79 153.65 182.29 167.55 182.29 129.72 146.08 125.67 146.08 106.56 177.5 108.12 177.5 72.93 146.08 74.65 146.08 58.02 182.29 54.08 182.29 16.26 119.79 29.96 119.79 153.65"/>
    <polygon class="cls-1" points="251.62 1.06 196.46 13.15 196.46 170.7 240.24 180.43 240.24 92.24 265.91 186.14 291.7 191.87 291.7 112.09 251.62 1.06"/>
  </g>
  <g>
    <rect class="cls-2" x="319.78" y="121.75" width="32" height="59.48" transform="translate(136.86 461.52) rotate(-81.6)"/>
    <g>
      <polygon class="cls-2" points="291.7 111.87 291.7 111.87 291.7 191.88 316.61 186.62 342.68 92.02 342.68 181.11 387.24 171.7 387.24 11.79 331.11 0 291.7 111.87"/>
      <polygon class="cls-2" points="466.69 93.13 437.62 22.38 404.46 15.41 404.46 168.06 437.62 161.05 437.62 91.32 466.69 154.91 489.8 150.03 489.8 33.34 466.69 28.49 466.69 93.13"/>
      <polygon class="cls-2" points="499.09 148.06 517.63 144.15 517.63 39.19 499.09 35.29 499.09 148.06"/>
      <path class="cls-2" d="M539.54,43.79l-18.08,99.55,16.39-3.46,2.27-14.91,14.23-2.1,1.96,13.11,12.23-2.58-13.57-86.36-15.43-3.24ZM543.54,102.28l3.92-25.9,3.79,25.52-7.71.37Z"/>
      <path class="cls-2" d="M588.19,105.92c-.79,1.45-1.7,2.23-2.74,2.32-1.55.14-2.79-1.28-3.72-4.28-.93-3.04-1.4-7.19-1.4-12.44s.47-9.41,1.4-12.44c.92-3,2.17-4.42,3.72-4.28,1.04.1,1.95.87,2.74,2.32.78,1.44,1.38,3.4,1.8,5.88l8.71.42c-.35-5.63-1.07-10.62-2.17-14.99-1.11-4.43-2.57-8.01-4.39-10.73-1.87-2.78-4.03-4.45-6.52-4.98-2.98-.64-5.65.48-7.98,3.41-2.39,3.01-4.27,7.58-5.6,13.72-1.36,6.23-2.04,13.47-2.04,21.67s.68,15.44,2.04,21.67c1.34,6.14,3.21,10.71,5.6,13.72,2.33,2.94,5,4.05,7.98,3.41,2.49-.53,4.65-2.2,6.52-4.98,1.83-2.72,3.28-6.29,4.39-10.73,1.09-4.38,1.81-9.36,2.17-14.99l-8.71.42c-.42,2.48-1.02,4.44-1.8,5.88Z"/>
    </g>
  </g>
</svg>